<svg id="visual" viewBox="0 0 900 600" width="900" height="600" xmlns="http://www.w3.org/2000/svg" xmlns:xlink="http://www.w3.org/1999/xlink" version="1.1"><rect x="0" y="0" width="900" height="600" fill="#001122"></rect><path d="M441 0L463 0L463 67L437 67L437 133L458 133L458 200L450 200L450 267L462 267L462 333L440 333L440 400L461 400L461 467L446 467L446 533L442 533L442 600L0 600L0 533L0 533L0 467L0 467L0 400L0 400L0 333L0 333L0 267L0 267L0 200L0 200L0 133L0 133L0 67L0 67L0 0L0 0Z" fill="#d8a438"></path><path d="M365 0L350 0L350 67L355 67L355 133L355 133L355 200L362 200L362 267L358 267L358 333L357 333L357 400L359 400L359 467L364 467L364 533L365 533L365 600L0 600L0 533L0 533L0 467L0 467L0 400L0 400L0 333L0 333L0 267L0 267L0 200L0 200L0 133L0 133L0 67L0 67L0 0L0 0Z" fill="#da9a2a"></path><path d="M262 0L278 0L278 67L266 67L266 133L267 133L267 200L284 200L284 267L260 267L260 333L280 333L280 400L266 400L266 467L288 467L288 533L264 533L264 600L0 600L0 533L0 533L0 467L0 467L0 400L0 400L0 333L0 333L0 267L0 267L0 200L0 200L0 133L0 133L0 67L0 67L0 0L0 0Z" fill="#dd8f1d"></path><path d="M169 0L164 0L164 67L165 67L165 133L193 133L193 200L169 200L169 267L178 267L178 333L179 333L179 400L189 400L189 467L195 467L195 533L176 533L176 600L0 600L0 533L0 533L0 467L0 467L0 400L0 400L0 333L0 333L0 267L0 267L0 200L0 200L0 133L0 133L0 67L0 67L0 0L0 0Z" fill="#e0830f"></path><path d="M82 0L100 0L100 67L102 67L102 133L78 133L78 200L88 200L88 267L103 267L103 333L85 333L85 400L101 400L101 467L104 467L104 533L104 533L104 600L0 600L0 533L0 533L0 467L0 467L0 400L0 400L0 333L0 333L0 267L0 267L0 200L0 200L0 133L0 133L0 67L0 67L0 0L0 0Z" fill="#e37602"></path></svg>